<svg width="250" height="250" viewBox="0 0 250 250" fill="none" xmlns="http://www.w3.org/2000/svg">
<path fill-rule="evenodd" clip-rule="evenodd" d="M165.781 125.5C165.781 137.374 148.145 147 126.39 147C104.636 147 87 137.374 87 125.5C87 113.626 104.636 104 126.39 104C148.145 104 165.781 113.626 165.781 125.5ZM102.379 115.316L98.0616 138.23H103.188L104.267 132.289H109.123C113.71 132.572 118.836 128.612 118.836 121.822C118.836 117.862 116.677 115.599 112.361 115.316H102.379ZM106.695 119.559L105.346 128.046H105.346H108.584C111.012 127.763 113.17 126.915 113.44 122.105C113.44 120.408 112.091 119.559 110.202 119.559H106.695ZM122.149 109.375L117.833 132.289H122.959L125.387 119.559H129.434C131.323 119.559 131.323 120.408 131.053 121.822L129.164 132.289H134.56L136.449 120.691C136.988 117.862 135.37 115.599 131.053 115.316H126.197L127.276 109.375H122.149ZM138.531 115.316L134.215 138.23H139.341L140.42 132.289H145.276C149.863 132.572 154.989 128.612 154.989 121.822C154.989 117.862 152.831 115.599 148.514 115.316H138.531ZM142.848 119.559L141.499 128.046H141.499H144.737C147.165 127.763 149.323 126.915 149.593 122.105C149.593 120.408 148.244 119.559 146.355 119.559H142.848Z" fill="white"/>
</svg>
